<mxfile host="www.draw.io" modified="2020-03-04T05:21:27.277Z" agent="Mozilla/5.0 (Windows NT 10.0; Win64; x64) AppleWebKit/537.36 (KHTML, like Gecko) Chrome/80.0.3987.122 Safari/537.36" etag="1uWoBcU9G--yoFMgBpEw" version="12.7.9" type="github">
  <diagram id="C5RBs43oDa-KdzZeNtuy" name="Page-1">
    <mxGraphModel dx="979" dy="455" grid="1" gridSize="10" guides="1" tooltips="1" connect="1" arrows="1" fold="1" page="1" pageScale="1" pageWidth="827" pageHeight="1169" math="0" shadow="0">
      <root>
        <mxCell id="WIyWlLk6GJQsqaUBKTNV-0" />
        <mxCell id="WIyWlLk6GJQsqaUBKTNV-1" parent="WIyWlLk6GJQsqaUBKTNV-0" />
        <mxCell id="zDYXgfPWd39SIxPkGIGd-15" value="" style="edgeStyle=orthogonalEdgeStyle;rounded=0;orthogonalLoop=1;jettySize=auto;html=1;" parent="WIyWlLk6GJQsqaUBKTNV-1" source="WIyWlLk6GJQsqaUBKTNV-3" target="zDYXgfPWd39SIxPkGIGd-3" edge="1">
          <mxGeometry relative="1" as="geometry" />
        </mxCell>
        <mxCell id="WIyWlLk6GJQsqaUBKTNV-3" value="constructor(props)" style="rounded=1;whiteSpace=wrap;html=1;fontSize=12;glass=0;strokeWidth=1;shadow=0;" parent="WIyWlLk6GJQsqaUBKTNV-1" vertex="1">
          <mxGeometry x="319" y="100" width="120" height="40" as="geometry" />
        </mxCell>
        <mxCell id="zDYXgfPWd39SIxPkGIGd-0" value="Class Component LifeCycle - Creation" style="text;html=1;strokeColor=none;fillColor=none;align=center;verticalAlign=middle;whiteSpace=wrap;rounded=0;" parent="WIyWlLk6GJQsqaUBKTNV-1" vertex="1">
          <mxGeometry x="268" y="40" width="220" height="30" as="geometry" />
        </mxCell>
        <mxCell id="zDYXgfPWd39SIxPkGIGd-11" value="" style="edgeStyle=orthogonalEdgeStyle;rounded=0;orthogonalLoop=1;jettySize=auto;html=1;" parent="WIyWlLk6GJQsqaUBKTNV-1" source="zDYXgfPWd39SIxPkGIGd-3" target="zDYXgfPWd39SIxPkGIGd-5" edge="1">
          <mxGeometry relative="1" as="geometry" />
        </mxCell>
        <mxCell id="zDYXgfPWd39SIxPkGIGd-3" value="getDerievedStatsFromProps(props,state)" style="rounded=1;whiteSpace=wrap;html=1;fontSize=12;glass=0;strokeWidth=1;shadow=0;" parent="WIyWlLk6GJQsqaUBKTNV-1" vertex="1">
          <mxGeometry x="229" y="180" width="301" height="40" as="geometry" />
        </mxCell>
        <mxCell id="zDYXgfPWd39SIxPkGIGd-12" value="" style="edgeStyle=orthogonalEdgeStyle;rounded=0;orthogonalLoop=1;jettySize=auto;html=1;" parent="WIyWlLk6GJQsqaUBKTNV-1" source="zDYXgfPWd39SIxPkGIGd-5" target="zDYXgfPWd39SIxPkGIGd-7" edge="1">
          <mxGeometry relative="1" as="geometry" />
        </mxCell>
        <mxCell id="zDYXgfPWd39SIxPkGIGd-5" value="render()" style="rounded=1;whiteSpace=wrap;html=1;fontSize=12;glass=0;strokeWidth=1;shadow=0;" parent="WIyWlLk6GJQsqaUBKTNV-1" vertex="1">
          <mxGeometry x="229" y="260" width="300" height="40" as="geometry" />
        </mxCell>
        <mxCell id="zDYXgfPWd39SIxPkGIGd-13" value="" style="edgeStyle=orthogonalEdgeStyle;rounded=0;orthogonalLoop=1;jettySize=auto;html=1;" parent="WIyWlLk6GJQsqaUBKTNV-1" source="zDYXgfPWd39SIxPkGIGd-7" target="zDYXgfPWd39SIxPkGIGd-10" edge="1">
          <mxGeometry relative="1" as="geometry" />
        </mxCell>
        <mxCell id="zDYXgfPWd39SIxPkGIGd-7" value="Render Child Components" style="rounded=1;whiteSpace=wrap;html=1;fontSize=12;glass=0;strokeWidth=1;shadow=0;" parent="WIyWlLk6GJQsqaUBKTNV-1" vertex="1">
          <mxGeometry x="229" y="340" width="301" height="40" as="geometry" />
        </mxCell>
        <mxCell id="zDYXgfPWd39SIxPkGIGd-10" value="componentDidMount()" style="rounded=1;whiteSpace=wrap;html=1;fontSize=12;glass=0;strokeWidth=1;shadow=0;" parent="WIyWlLk6GJQsqaUBKTNV-1" vertex="1">
          <mxGeometry x="230" y="420" width="300" height="40" as="geometry" />
        </mxCell>
        <mxCell id="zDYXgfPWd39SIxPkGIGd-20" value="&lt;div&gt;Call super(props)&lt;/div&gt;&lt;div&gt;DO: Setup State&lt;/div&gt;&lt;div&gt;Don&#39;t: Cause side effects&lt;/div&gt;" style="html=1;shadow=0;dashed=0;shape=mxgraph.bootstrap.rrect;align=center;rSize=5;strokeColor=none;fillColor=#0D5B9D;fontColor=#ffffff;fontStyle=1;whiteSpace=wrap;fontSize=10;" parent="WIyWlLk6GJQsqaUBKTNV-1" vertex="1">
          <mxGeometry x="590" y="92.5" width="180" height="55" as="geometry" />
        </mxCell>
        <mxCell id="zDYXgfPWd39SIxPkGIGd-21" value="&lt;div&gt;&lt;span&gt;DO: sync local state with prop&lt;/span&gt;&lt;br&gt;&lt;/div&gt;&lt;div&gt;Don&#39;t: Cause side effects&lt;/div&gt;" style="html=1;shadow=0;dashed=0;shape=mxgraph.bootstrap.rrect;align=center;rSize=5;strokeColor=none;fillColor=#0D5B9D;fontColor=#ffffff;fontStyle=1;whiteSpace=wrap;fontSize=10;" parent="WIyWlLk6GJQsqaUBKTNV-1" vertex="1">
          <mxGeometry x="590" y="172.5" width="180" height="55" as="geometry" />
        </mxCell>
        <mxCell id="zDYXgfPWd39SIxPkGIGd-22" value="&lt;div&gt;Prepare JSX&lt;/div&gt;" style="html=1;shadow=0;dashed=0;shape=mxgraph.bootstrap.rrect;align=center;rSize=5;strokeColor=none;fillColor=#0D5B9D;fontColor=#ffffff;fontStyle=1;whiteSpace=wrap;fontSize=10;" parent="WIyWlLk6GJQsqaUBKTNV-1" vertex="1">
          <mxGeometry x="590" y="252.5" width="180" height="55" as="geometry" />
        </mxCell>
        <mxCell id="zDYXgfPWd39SIxPkGIGd-23" value="&lt;div&gt;&lt;span&gt;DO: Cause side-effect&lt;/span&gt;&lt;br&gt;&lt;/div&gt;&lt;div&gt;Don&#39;t: Don&#39;t change local state&lt;/div&gt;&lt;div&gt;trigger re-render&lt;/div&gt;" style="html=1;shadow=0;dashed=0;shape=mxgraph.bootstrap.rrect;align=center;rSize=5;strokeColor=none;fillColor=#0D5B9D;fontColor=#ffffff;fontStyle=1;whiteSpace=wrap;fontSize=10;" parent="WIyWlLk6GJQsqaUBKTNV-1" vertex="1">
          <mxGeometry x="590" y="405" width="180" height="55" as="geometry" />
        </mxCell>
      </root>
    </mxGraphModel>
  </diagram>
</mxfile>
